# xmcd
#
# Track frame offsets:
#	180
#	13038
#	25088
#	39456
#	51744
#	63990
#	77902
#	90811
#	103069
#	116175
#	130586
#	145230
#	158638
#	172268
#	183451
#	196066
#	209547
#	222704
#
# Disc length: 3151 seconds
#
# Revision: 0
# Processed by: cddbd v1.5.2PL0 Copyright (c) Steve Scherf et al.
# Submitted via: audiograbber 1.81.03
#
DISCID=060c4d12
DTITLE=Various Artist - Blues Festival CD 3
DYEAR=2005
DGENRE=Blues
TTITLE0=On Your Way Blues
TTITLE1=I Want Some Of Your Pie
TTITLE2=Frosty Morning Blues
TTITLE3=Mad Man Blues
TTITLE4=His Spirit Lives On
TTITLE5=Brownsville Blues
TTITLE6=Blowing the Blues
TTITLE7=Eagle Rock Rag
TTITLE8=War Time Blues
TTITLE9=Sitting on the Top of The World
TTITLE10=Christmas Time Blues
TTITLE11=Terraplane Blues
TTITLE12=Delmar Avenue
TTITLE13=Got To Find My Little Woman
TTITLE14=22-20 Blues
TTITLE15=Johnson And Turner Blues
TTITLE16=Baby Won't You Jump With Me
TTITLE17=Money Tree Man
EXTD=
EXTT0=
EXTT1=
EXTT2=
EXTT3=
EXTT4=
EXTT5=
EXTT6=
EXTT7=
EXTT8=
EXTT9=
EXTT10=
EXTT11=
EXTT12=
EXTT13=
EXTT14=
EXTT15=
EXTT16=
EXTT17=
PLAYORDER=
